<svg id="Grupo_1" data-name="Grupo 1" xmlns="http://www.w3.org/2000/svg" width="900" height="900" viewBox="0 0 900 900">
  <defs>
    <style>
      .cls-1, .cls-2 {
        fill: #fff;
      }

      .cls-1, .cls-3 {
        stroke: #000;
      }

      .cls-1 {
        stroke-width: 30px;
      }

      .cls-1, .cls-2, .cls-3 {
        fill-rule: evenodd;
      }

      .cls-3 {
        stroke-width: 15.97px;
      }
    </style>
  </defs>
  <path id="Forma_1" data-name="Forma 1" class="cls-1" d="M633,264S803.012,58.921,841,119c72.674,114.936-45,299-45,299s62.493,256.413-93,385c-52.378,43.315-129.4,66.433-242,68-103.781,1.444-178.434-12.92-231-51C72.021,705.556,108,461,108,461S-39.651,225.757,66,114c41.411-39.866,190,151,190,151Z"/>
  <path id="Forma_1_copia" data-name="Forma 1 copia" class="cls-1" d="M136,496s-32.757-4.091-93.274,34.961C-20.624,571.842,95,635,95,635S24.653,716.151,44,768c24.064,101.2,189-6,189-6m446-13s156.283,85.933,198-40c10.328-46.225-48-109-48-109s95.939-83.638,31-118c-55.893-33.644-103-14-103-14M656,277s59.212-65.165-9.379-103.6C602.363,148.592,531,217,531,217S420.807,102.036,337,143c-34.508,16.867-26,94-26,94s-65.206-45.453-88-5c-17.076,30.306,21,67,21,67"/>
  <path id="Forma_1_copia_2" data-name="Forma 1 copia 2" class="cls-2" d="M268,767S120.857,808.339,82,792c-57.5-22.265,70-159,70-159s-99.493-34.8-98-70c1.722-40.6,54.536-35.4,54.536-35.4,17.01,4,.768-55.3,34.418-109.173C175.4,366.475,239,316,239,316s-19.076-48.694-2-79c20.458-18.653,96,37,96,37s12.492-65.133,47-82c83.807-40.964,151,54,151,54s72.377-79.9,116-54c35.891,21.312,16,105,16,105s123.5,40.02,126,180c0.044,2.454,48.835,14.254,79,31,10.44,42.926-83,97-83,97s72.328,79.775,62,126c-19.139,55.085-186,26-186,26Z"/>
  <path id="Forma_2" data-name="Forma 2" class="cls-3" d="M454.887,590.523c-58.626,12.812-73.74,43.138-31.28,88.973s98.485-2.077,110.007-27.215S513.513,577.71,454.887,590.523Z"/>
  <path id="Forma_2-2" data-name="Forma 2" class="cls-3" d="M277.05,487.933c-41.839,11-53.2,37.565-24.083,78s69.868-1.4,78.576-23.423S318.89,476.935,277.05,487.933Z"/>
  <path id="Forma_2-3" data-name="Forma 2" class="cls-3" d="M600.569,481.931c-16.788,40.551-2.612,67.8,47.283,72.67s41.516-56.037,29.327-78.062S617.356,441.38,600.569,481.931Z"/>
</svg>
