<svg xmlns="http://www.w3.org/2000/svg" xmlns:xlink="http://www.w3.org/1999/xlink" width="484.6" height="427" viewBox="0 0 2423 2135">
  <defs>
    <style>
      .cls-1 {
        fill: #353535;
      }

      .cls-1, .cls-10, .cls-11, .cls-2, .cls-3, .cls-4, .cls-5, .cls-6, .cls-7, .cls-8, .cls-9 {
        fill-rule: evenodd;
      }

      .cls-2 {
        fill: #ede974;
        filter: url(#filter);
      }

      .cls-3 {
        fill: none;
        stroke: #fcffc7;
        stroke-width: 10px;
        stroke-dasharray: 40 20;
      }

      .cls-4 {
        fill: #b4db61;
      }

      .cls-5 {
        fill: #a7c955;
      }

      .cls-6 {
        fill: #f49351;
      }

      .cls-7 {
        fill: #cebf06;
        filter: url(#filter-2);
      }

      .cls-8 {
        fill: #fff;
      }

      .cls-9 {
        fill: #373737;
      }

      .cls-10 {
        fill: #005467;
      }

      .cls-11 {
        fill: #fdb037;
      }
    </style>
    <filter id="filter" x="411" y="413" width="1935" height="1533" filterUnits="userSpaceOnUse">
      <feOffset result="offset" dx="6.947" dy="7.193" in="SourceAlpha"/>
      <feGaussianBlur result="blur" stdDeviation="3"/>
      <feFlood result="flood" flood-opacity="0.26"/>
      <feComposite result="composite" operator="in" in2="blur"/>
      <feBlend result="blend" in="SourceGraphic"/>
    </filter>
    <filter id="filter-2" x="578" y="432" width="1616" height="611" filterUnits="userSpaceOnUse">
      <feOffset result="offset" dx="6.947" dy="7.193" in="SourceAlpha"/>
      <feGaussianBlur result="blur" stdDeviation="3"/>
      <feFlood result="flood" flood-opacity="0.26"/>
      <feComposite result="composite" operator="in" in2="blur"/>
      <feBlend result="blend" in="SourceGraphic"/>
    </filter>
  </defs>
  <path id="Bow" class="cls-1" d="M516,672c23.283-.88,35.1-1.807,47,12-2.333,1-3.667,9-6,10-5.138-5.381-19.714-12.84-40-9-26.777,5.068-59.677,27.97-67,83-5.389,40.5,15.75,69.752,50,61a58.328,58.328,0,0,1-7,13c-58.881,4.894-66.923-66.042-42.495-117.665C465.387,692.886,483.134,681.472,516,672Z"/>
  <path id="etiqueta_fondo" data-name="etiqueta fondo" class="cls-2" d="M2249,914c29.7,13,89.16,24.038,79,75q-13.005,30-26,60-36.495,82.485-73,165c-70.9,162.6-144.52,324.27-215,486q-36.495,82.485-73,165c-10.39,23.86-16.84,52.02-41,62-35.35,14.61-106.92-31.13-134-43q-173.985-76.995-348-154-367.47-162.48-735-325c-17.961-13.11-30.79-38.99-44-57q-47.495-63.495-95-127-45-60-90-120c-14.332-19.54-36.1-36.87-41-65-4.026-23.11,13.269-43.638,20-59C556.632,691.368,593.32,614.917,606,586c14.444-32.938,37.33-109.622,65-126,26.44-15.65,76.553-8.3,111-14l324-32c32.8-.144,56.54,19.429,81,30C1241.99,468.331,2163.01,876,2249,914ZM752,759c47.357-.1,77.42,48.758,72,87-6.012,42.418-32.078,81.288-91,74-45.89-5.676-69.548-54.044-66-79C668.016,833.854,667.856,759.17,752,759Z"/>
  <path id="etiqueta_fondo_copy" data-name="etiqueta fondo copy" class="cls-3" d="M548,839c-6.339,13.924-76.232,182.85-72.441,203.8,4.614,25.5,25.113,41.2,38.61,58.91q42.372,54.39,84.753,108.78,44.726,57.54,89.461,115.11c12.44,16.33,24.521,39.78,41.435,51.67q346.04,147.27,692.152,294.59c109.22,46.52,218.48,109.06,327.71,155.59,25.5,10.76,92.9,52.21,126.18,38.97,22.75-9.05,28.83-34.57,38.61-56.2,22.92-49.84,53.62-115.37,76.53-165.22,66.37-146.6,127.92-293.47,194.68-440.86,22.92-49.85,29.83-86.71,52.75-136.56l24.48-54.39c9.57-46.188-46.43-56.192-74.39-67.977-80.98-34.441-925.3-411.966-977.09-434.02-23.03-9.582-72.24-43-92.43-40.193-101.69,9.668-160.307,13.332-262,23-32.438,5.17-116.585,4.51-141.483,18.7C689.46,527.541,664.424,580.1,548,839Zm161.75,27.044"/>
  <path class="cls-3" d="M762,265"/>
  <path id="manzana" class="cls-4" d="M1861,992c-17.31-3.274-30.92-1.967-44-8-43.14-19.892-45.16-60.377-117-59l-31,7c-22.7,8.879-37.69,23.831-53,40-64.77,94.98-70.77,254.97,7,302q27,8.505,54,17c13.22,8.11,20.34,25.21,37,28,123.03,20.6,220.12-128.63,228-156C1966.43,1078.17,1939.75,1006.9,1861,992Z"/>
  <path id="hoja" class="cls-5" d="M1871,907c29.98-.577,50.66,5.782,73,12-12.71,22.218-92.61,90.67-129,63-5.69-4.327-9.07-11.813-9-22C1806.24,922.593,1843.11,918.169,1871,907Z"/>
  <path id="Sana_texto" data-name="Sana texto" class="cls-6" d="M1515,1329c-59.52.42-126.24,109.86-162,145-20.01-.33-46.47-15.5-57-27q3-4.005,6-8c-22.45,16.64-49.3,49.38-81,54q-15-4.005-30-8c-67.62-18.95-22.36-100.55-4-136-65.65,26.96-160.43-12.76-115-82-54.2,11.51-145.683,67.75-215,37-18.012-7.99-53.479-48.92-64-66-23.536-38.2-5.83-72.03,29-84,5.676-1.95,15.779-5.75,23-3,20.754,8.66,47.185,35.85,57,56l-2,3c-28.171-.46-50.548,16.78-54,41h7c48.8-13.17,86.318-27.1,104-70,24.049-58.35-8.485-117.34,57-140,60.62-20.98,169.21,22.12,157,76-13.45,10.47-49.92,30.44-75,18-0.33-.67-0.67-1.33-1-2,0.22-4.51.71-5.39,2-8,22.92-3.43,52.3,3.52,61-14v-10c-23.52-3.36-58.33-13.03-82-3-54.59,23.14-37.13,78.84-55,136-7.23,23.14-22.756,32.51-37,48q54-19.005,108-38c25.45-16.27,31.83-35.03,71-43,67.89-13.81,146.84,27.27,159,73h-7c-16.41-5.72-37.77-8.65-50-19-11.53-9.76-5.92-25.03-25-29-40.97-8.52-98.53,48.9-111,73-5.77,11.15-18.39,29.55-11,44,96.56,25.14,85.21-52.14,133-76,20.45,5.64,43.07,13.7,55,28-31.75,43.37-103.88,110.17-88,187,65.1-19.36,174.51-140.29,210-195,22.06-.35,47.94,13.92,59,26v2l-20,23c11.83-6.63,23.64-16.45,39-19,30.59-5.08,81.9,24.66,68,58-9.37,22.48-29.84,37.13-44,55q-45.99,57.495-92,115c30-.15,46.66-20.23,64-34,42.81-34.02,62.06-88.77,118-110,63.42-24.07,169.41,20.11,175,69h-6c-16.01-5.72-36.22-8.48-49-18-11.75-8.75-6.73-26.07-25-30-50.27-10.82-130.71,70.68-125,116,66.4,17.88,86.29-16.57,115-54,5.23-6.83,9.4-15.63,17-20,14.53-5.33,48.45,19.64,58,26-28.06,42.85-64.84,75.77-84,129-3.35,9.31-16.19,55.09,1,58,53.7-20.84,89.1-70.18,131-104,12.77-10.3,22.28-24.5,37-33,2.56,1.63,2.42,1.23,4,4l1,1c-3.31,11.12-42.6,41.79-53,50-39.67,31.31-105.32,126.86-175,79-38.31-26.31,10.69-106.5,18-129-46.09,18.87-128.86,2.81-129-48-23.94,18.4-59.95,71.11-106,57l-51-27v-3l34-40c25.66-32.3,53.32-62.14,77-97C1496.17,1372.56,1514.5,1354.89,1515,1329Z"/>
  <path id="etiqueta_arriba" data-name="etiqueta arriba" class="cls-7" d="M592,819l27,143c5.545,25.63,4.148,52.91,26,62,22.679,9.43,82.942-9.22,105-14l258-47,824-155Q1948,786,2064,764c27.13-5.907,78.73-6.962,99-20,23.56-15.155,13.27-53.618,7-82q-15.495-80.491-31-161c-8.37-36.838-3.37-67.7-49-68Q1515.05,540.488,940,648c-90.991,17-181.661,35.986-273,51C573.6,717.269,568.014,708.412,592,819Zm170-54c51.362,0,83,30.78,83,78s-33.638,82-85,82-80-31.28-80-78.5S710.638,765,762,765Z"/>
  <path id="etiqueta_texto" data-name="etiqueta texto" class="cls-8" d="M1957,521c3.33,0.667,6.67,1.333,10,2q25.5,64.494,51,129c7.44,18.126,21.55,39.344,23,61-0.67,1-1.33,2-2,3-12.56,2.109-30.38,9.206-41,3q-6.495-17-13-34l-37,7c0.41,14.649,3.14,32.12-3,42-10.29,1.671-26.97,8.761-37,5l-3-2V536C1915.18,523.747,1941.69,528.2,1957,521Zm-109,21,8,1c6.34,4.359,11.72,32.592,5,37l-26,6q10.5,56,21,112c3.41,14.605,10.47,34.5,8,50-9.84,4.571-32.28,10.746-42,5q-15-78.991-30-158h-5c-8.63,2.9-20.05,5.242-27,1-2.22-10.254-6.18-23.368-5-33,0.67-1,1.33-2,2-3Zm-134,26c2.67,1,5.33,2,8,3l6,32-3,4-53,11q3.495,20,7,40c16.82-1.827,42.28-13.287,56-6,1.95,11.3,7.57,25.554,2,35l-50,10v1q4.005,21.5,8,43h1c15.39-4.832,40.36-11.849,57-9,4.26,9.371,9.38,28.985,4,38-20.97,4.669-79.63,21.607-97,16q-13.5-69.993-27-140c-3.26-14.106-13.8-42.378-10-56l3-5Zm229,1q1.005,42,2,84l28-6v-1Q1958,607.5,1943,569Zm-368,25c2.33,1,4.67,2,7,3q10.995,58.494,22,117c3.47,15.963,11.71,39.6,6,60-4.22,15.079-16.36,25.379-30,31-93.61,38.562-91.21-50.543-105-114-4.49-20.676-15.61-51.348-13-72,0.67-1,1.33-2,2-3,11.87-2.879,30.46-9,40-4q11.505,57.995,23,116c3.24,14.11,2.12,33.657,13,40,6.23,5.909,19.7,2.176,23-4,8.55-10.239-.67-34.5-3-45Q1550,662.006,1540,605c0.67-1.333,1.33-2.667,2-4Zm-210,38c17.19-.226,30.36.9,40,8,34.2,25.185,58.75,137.2,26,181v1c9.88-.492,16.87-4.153,24-1,2.59,10.206,7.16,24.334,2,33-31.9,3.552-104.49-14.966-118-33-19.17-25.579-45.9-125.321-22-164C1327.64,639.776,1345.02,640.5,1365,632Zm-119,25h6c6.79,10.7,6.75,26.21,10,41q10.995,54.5,22,109c3.34,14.217,11.39,40.842,5,52l-37,6c-7.85-3.754-7.87-33.169-10-43q-14.505-76.992-29-154C1218.12,658.514,1235.81,661.339,1246,657Zm121,15c-5.07,2.374-8.3,2.194-11,7-16.36,18.7,13.14,116.258,26,121,7.65,3.412,14.68-1.864,19-5,10.22-37.768-6.03-100.868-25-122Zm-202,1,8,1c6.34,4.359,11.72,32.592,5,37l-26,6q10.5,56,21,112c3.41,14.605,10.47,34.5,8,50-9.84,4.571-32.28,10.746-42,5q-15-78.991-30-158h-5c-8.63,2.9-20.05,5.242-27,1-2.22-10.254-6.18-23.368-5-33,0.67-1,1.33-2,2-3Zm-133,25c2.67,1,5.33,2,8,3l6,32-3,4-53,11,7,40c16.82-1.827,42.28-13.287,56-6,1.95,11.3,7.57,25.554,2,35l-50,10v1q4,21.5,8,43h1c15.39-4.832,40.36-11.849,57-9,4.26,9.371,9.38,28.985,4,38-20.97,4.669-79.629,21.607-97,16L951,776c-3.261-14.106-13.8-42.378-10-56l3-5Z"/>
  <path id="bow_back" data-name="bow back" class="cls-9" d="M445,701c148.35,18.647,164.51,72.544,267,85v11l-3,1c-12.371,3.458-53.848-14.512-66-19-57.073-21.076-110.345-54.268-174-63-74.548-10.226-140.25,12.359-198,46-58.391,34.015-108.588,79.373-140,121-18.238,24.169-66.85,92.558-46,142,29.466,69.87,86.445,47.78,126,8,74.214-74.631,125.807-194.736,215-246,24.356-14,101.27-4.378,177,23a437.639,437.639,0,0,1,90,45c1.108,7.189.616,11.217-9,11-13.257-19.578-67.464-37.664-94-46-36.026-11.317-120.71-32.847-156-21-41.2,13.831-163.9,184.891-193,223-25.4,31.9-94.482,91.16-143,44-51.44-50-24.161-122.226,8-171,51.952-78.789,127.7-133.608,220-174C364.509,704.148,394.694,703.715,445,701Z"/>
  <path id="cinta_copy" data-name="cinta copy" class="cls-10" d="M1602,1042c13.26,17.78,23.93,13.99,43,26,56.18,35.39,114.29,63.78,180,91,14.31,5.93,74.89,38.15,89,30,38.38-2.98,26.75-25.01,14-46-47.14-17.04-66.29-21.72-122-48-18.48-8.72-38.94-20.24-66-35-38.9-21.22-83.61-48.76-107-66C1618.13,983.038,1569.65,998.638,1602,1042Zm288,166c6.27,10.89,3,8.67,3,14-16.46,15.73-13.49,12.16-30,28-36,.2-61.71-12.01-90-22-66.19-23.37-116.46-34.43-167-75-47.6-38.21-55.92-87.15-25-73-0.79,2.77,17.81,10.53,63,36,25.74,14.51,29.37,16.46,62,30,26.61,11.04,59.23,25.92,91,37C1845.19,1199.81,1889.24,1210.66,1890,1208Zm86,154c15,3.67,9,9.33,24,13-1.33,18,5.33,19,4,37-56.14-2.56-94.33-22.17-128-49-25.54-20.35-33.36-43.08-66-56,4.28-10.2,29.48-21.76,39-32,1,0,9,6,21,13C1899.5,1317.83,1932.16,1353.34,1976,1362Z"/>
  <path id="cinta" class="cls-11" d="M1617,962h7q-4.005,6-8,12a38.612,38.612,0,0,0,22,22q-7.995,12.5-16,25c2.71,2.46,2.55,2.37,6,2q7.5-11.5,15-23l2,2q22.005,14,44,28l-2,2c-3.37,8.27-12.7,16.34-13,24,1.67,0.33,3.33.67,5,1q7.5-12.495,15-25,22.995,13.995,46,28-7.005,13.005-14,26h2c1,0.33,2,.67,3,1q7.005-12.495,14-25,24.99,13.5,50,27-6.495,13.5-13,27c1.33,0.67,2.67,1.33,4,2h1q6.495-13.5,13-27l45,21q-4.995,13.995-10,28c2,0.67,4,1.33,6,2q4.5-13.995,9-28,25.5,9.495,51,19-5.505,13.995-11,28c1.33,0.67,2.67,1.33,4,2,0.67-.33,1.33-0.67,2-1q6-13.005,12-26l34,9c4.74-2.14,5.44-2.59,7-8l6,3c5.22,17.43-16.23,58.53-28,64-14.11,8.15-88.69-25.07-103-31a1178.057,1178.057,0,0,1-180-93c-19.07-12.01-45.74-24.22-59-42C1564.87,1011.01,1602.65,970.983,1617,962Zm-43,89c1.67,0.33,3.33.67,5,1-6.57,17.61,1.92,29.47,14,35q-4.005,13.995-8,28c1.67,0.33,3.33.67,5,1q4.005-13.005,8-26l45,24q-4.5,13.995-9,28c1.33,0.33,2.67.67,4,1q4.995-13.005,10-26,25.995,12.495,52,25-4.005,13.005-8,26c1.33,0.33,2.67.67,4,1,0.33-.67.67-1.33,1-2q3.495-10.995,7-22l53,22q-4.005,13.995-8,28c1.67,0.33,3.33.67,5,1v-2q4.005-12,8-24,27,9.495,54,19-4.5,14.505-9,29c1.33,0.33,2.67.67,4,1,0.33-.67.67-1.33,1-2q4.995-13.005,10-26,23.505,6.495,47,13-4.005,13.995-8,28h2c1,0.33,2,.67,3,1q4.005-13.995,8-28,19.995,2.505,40,5v4c-16.46,15.73-30.49,34.16-47,50-36,.2-70.71-13.01-99-23-66.19-23.37-137.83-46.23-189-86C1555.42,1136.68,1548.81,1074.8,1574,1051Zm274,224h3c-4.93,5.26-7.4,7.88-7.99,8.48-7.68,8.85-7.34,8.19-8.01,9.52,1,1.33,4,2.67,5,4,2.67-2.33,2.33-2.67,5-5q6-6.495,12-13c13.99,5.64,22,18.87,32,28a169.756,169.756,0,0,0-15,18,9.037,9.037,0,0,0,5,3c4.67-5.67,10.33-11.33,15-17,9.73,9.07,21.93,20.71,34,28-5.01,6.3-7.19,9.1-14,19,0.1,0.2,1.63,1.6,6,3,4-5.67,9-12.33,13-18,11.42,6.68,23.94,13.14,38,17q-3.495,11.505-7,23c0.67,0,5.33,1,6,1,2.66-6.27,1.81-8.88,6-22q22.5,5.505,45,11-1.995,27-4,54c-56.14-2.56-108.33-25.17-142-52-25.54-20.35-43.36-52.08-76-65C1803.28,1299.8,1838.48,1285.24,1848,1275Z"/>
  <path id="Bow_copy" data-name="Bow copy" class="cls-1" d="M519,672c-0.466.134-3.928,0.269-4.388,0.4-31.98,9.395-49.436,20.927-64.107,51.931-17.215,36.379-18.3,82.349,3.16,104.614,8.994,9.329,15.12-.51,6.458-11.356C451.132,806.336,447.255,788.627,450,768c7.323-55.03,41.223-78.932,68-84,12.467-1.29,20.632.1,29,1C547.492,685.053,532.972,673.027,519,672Z"/>
</svg>
